<svg width="24" height="24" viewBox="0 0 24 24" fill="none" xmlns="http://www.w3.org/2000/svg">
<path d="M5.1532 14.2569L5.29964 14.1104V13.9033V9.60039C5.29964 5.90008 8.29934 2.90039 11.9996 2.90039C15.7 2.90039 18.6996 5.90008 18.6996 9.60039V13.9033V14.1104L18.8461 14.2569L19.6946 15.1054C19.8948 15.3056 19.9547 15.6067 19.8464 15.8683C19.738 16.1298 19.4828 16.3004 19.1996 16.3004H4.79964C4.51652 16.3004 4.26128 16.1298 4.15293 15.8683C4.04458 15.6067 4.10447 15.3056 4.30467 15.1054L3.95112 14.7519L4.30467 15.1054L5.1532 14.2569ZM11.9996 21.1004C10.4577 21.1004 9.17879 19.9747 8.93972 18.5004H15.0595C14.8204 19.9747 13.5415 21.1004 11.9996 21.1004Z" fill="#090909" stroke="#090909"/>
</svg>
