<svg width="18" height="16" viewBox="0 0 18 16" fill="none" xmlns="http://www.w3.org/2000/svg">
<path fill-rule="evenodd" clip-rule="evenodd" d="M0.599609 2.00078C0.599609 1.33804 1.13687 0.800781 1.79961 0.800781H16.1996C16.8624 0.800781 17.3996 1.33804 17.3996 2.00078C17.3996 2.66352 16.8624 3.20078 16.1996 3.20078H1.79961C1.13687 3.20078 0.599609 2.66352 0.599609 2.00078Z" fill="white"/>
<path fill-rule="evenodd" clip-rule="evenodd" d="M0.599609 8.00078C0.599609 7.33804 1.13687 6.80078 1.79961 6.80078H16.1996C16.8624 6.80078 17.3996 7.33804 17.3996 8.00078C17.3996 8.66352 16.8624 9.20078 16.1996 9.20078H1.79961C1.13687 9.20078 0.599609 8.66352 0.599609 8.00078Z" fill="white"/>
<path fill-rule="evenodd" clip-rule="evenodd" d="M0.599609 14.0008C0.599609 13.338 1.13687 12.8008 1.79961 12.8008H16.1996C16.8624 12.8008 17.3996 13.338 17.3996 14.0008C17.3996 14.6635 16.8624 15.2008 16.1996 15.2008H1.79961C1.13687 15.2008 0.599609 14.6635 0.599609 14.0008Z" fill="white"/>
</svg>
