<svg width="20" height="20" viewBox="0 0 20 20" fill="none" xmlns="http://www.w3.org/2000/svg">
<path fill-rule="evenodd" clip-rule="evenodd" d="M7.60039 2.80039C4.94942 2.80039 2.80039 4.94942 2.80039 7.60039C2.80039 10.2514 4.94942 12.4004 7.60039 12.4004C10.2514 12.4004 12.4004 10.2514 12.4004 7.60039C12.4004 4.94942 10.2514 2.80039 7.60039 2.80039ZM0.400391 7.60039C0.400391 3.62394 3.62394 0.400391 7.60039 0.400391C11.5768 0.400391 14.8004 3.62394 14.8004 7.60039C14.8004 9.15539 14.3074 10.5953 13.4693 11.7722L19.2489 17.5519C19.7175 18.0205 19.7175 18.7803 19.2489 19.2489C18.7803 19.7175 18.0205 19.7175 17.5519 19.2489L11.7722 13.4693C10.5953 14.3074 9.15539 14.8004 7.60039 14.8004C3.62394 14.8004 0.400391 11.5768 0.400391 7.60039Z" fill="#393939"/>
</svg>
