<svg width="16" height="16" viewBox="0 0 16 16" fill="none" xmlns="http://www.w3.org/2000/svg">
<path d="M8.71516 2.04184C8.57965 1.77081 8.30264 1.59961 7.99962 1.59961C7.6966 1.59961 7.41959 1.77081 7.28408 2.04184L1.68408 13.2418C1.5422 13.5256 1.5814 13.8664 1.78401 14.1105C1.98662 14.3546 2.31435 14.456 2.61939 14.3688L6.61939 13.226C6.96283 13.1278 7.19961 12.8139 7.19961 12.4568V8.79961C7.19961 8.35778 7.55778 7.99961 7.99961 7.99961C8.44144 7.99961 8.79961 8.35778 8.79961 8.79961V12.4568C8.79961 12.8139 9.03639 13.1278 9.37983 13.226L13.3798 14.3688C13.6849 14.456 14.0126 14.3546 14.2152 14.1105C14.4178 13.8664 14.457 13.5256 14.3152 13.2418L8.71516 2.04184Z" fill="#090909"/>
</svg>
