<svg width="25" height="24" viewBox="0 0 25 24" fill="none" xmlns="http://www.w3.org/2000/svg">
<g clip-path="url(#clip0_11_78267)">
<path d="M19.1667 19.9993H11.1667V14.666H9.83333V19.9993H5.83333V14.666H4.5V19.9993C4.5 20.353 4.64048 20.6921 4.89052 20.9422C5.14057 21.1922 5.47971 21.3327 5.83333 21.3327H19.1667C19.5203 21.3327 19.8594 21.1922 20.1095 20.9422C20.3595 20.6921 20.5 20.353 20.5 19.9993V14.666H19.1667V19.9993Z" fill="#090909"/>
<path d="M23.0273 8.84602L20.3073 3.40602C20.1969 3.18387 20.0268 2.99693 19.816 2.8662C19.6052 2.73547 19.362 2.66615 19.114 2.66602H5.88733C5.63927 2.66615 5.39617 2.73547 5.18536 2.8662C4.97454 2.99693 4.80438 3.18387 4.69399 3.40602L1.97399 8.84602C1.88113 9.03234 1.83318 9.23783 1.83399 9.44602V11.4993C1.83339 11.8109 1.94189 12.1128 2.14066 12.3527C2.43443 12.6894 2.79726 12.959 3.20448 13.1431C3.61171 13.3271 4.05378 13.4213 4.50066 13.4193C5.22984 13.4205 5.93678 13.1683 6.50066 12.706C7.06453 13.1686 7.77132 13.4214 8.50066 13.4214C9.23 13.4214 9.93679 13.1686 10.5007 12.706C11.0645 13.1686 11.7713 13.4214 12.5007 13.4214C13.23 13.4214 13.9368 13.1686 14.5007 12.706C15.0645 13.1686 15.7713 13.4214 16.5007 13.4214C17.23 13.4214 17.9368 13.1686 18.5007 12.706C19.1301 13.2228 19.9354 13.4755 20.7473 13.4108C21.5591 13.3462 22.3143 12.9693 22.854 12.3593C23.0552 12.1204 23.1661 11.8184 23.1673 11.506V9.44602C23.1681 9.23783 23.1202 9.03234 23.0273 8.84602ZM20.5007 12.086C20.2159 12.0853 19.9354 12.0166 19.6826 11.8856C19.4298 11.7545 19.212 11.565 19.0473 11.3327L18.5007 10.586L17.9607 11.3327C17.7928 11.5614 17.5735 11.7474 17.3205 11.8756C17.0674 12.0038 16.7877 12.0706 16.504 12.0706C16.2203 12.0706 15.9406 12.0038 15.6875 11.8756C15.4345 11.7474 15.2151 11.5614 15.0473 11.3327L14.5007 10.586L13.9607 11.3327C13.7928 11.5614 13.5735 11.7474 13.3205 11.8756C13.0674 12.0038 12.7877 12.0706 12.504 12.0706C12.2203 12.0706 11.9406 12.0038 11.6875 11.8756C11.4345 11.7474 11.2151 11.5614 11.0473 11.3327L10.5007 10.586L9.96066 11.3327C9.79285 11.5614 9.57352 11.7474 9.32046 11.8756C9.06739 12.0038 8.78768 12.0706 8.50399 12.0706C8.2203 12.0706 7.9406 12.0038 7.68753 11.8756C7.43446 11.7474 7.21514 11.5614 7.04733 11.3327L6.50066 10.586L5.95399 11.3327C5.78931 11.565 5.57148 11.7545 5.31868 11.8856C5.06587 12.0166 4.78541 12.0853 4.50066 12.086C4.24942 12.0891 4.00043 12.0383 3.77045 11.9371C3.54047 11.8359 3.33482 11.6866 3.16733 11.4993V9.44602L5.88733 3.99935H19.114L21.834 9.43935V11.4793C21.6675 11.6693 21.4625 11.8216 21.2326 11.9262C21.0027 12.0308 20.7532 12.0853 20.5007 12.086V12.086Z" fill="#090909"/>
</g>
<defs>
<clipPath id="clip0_11_78267">
<rect width="24" height="24" fill="white" transform="translate(0.5)"/>
</clipPath>
</defs>
</svg>
