<svg width="16" height="16" viewBox="0 0 16 16" fill="none" xmlns="http://www.w3.org/2000/svg">
<path fill-rule="evenodd" clip-rule="evenodd" d="M2.96647 1.83588C2.65405 1.52346 2.14752 1.52346 1.8351 1.83588C1.52268 2.1483 1.52268 2.65483 1.8351 2.96725L13.0351 14.1672C13.3475 14.4797 13.854 14.4797 14.1665 14.1672C14.4789 13.8548 14.4789 13.3483 14.1665 13.0359L12.9879 11.8573C14.218 10.8755 15.152 9.53844 15.6347 8.00153C14.6153 4.75587 11.5831 2.40156 8.00095 2.40156C6.7021 2.40156 5.47554 2.7111 4.39101 3.26042L2.96647 1.83588ZM6.37528 5.24469L7.58639 6.4558C7.71862 6.42042 7.8576 6.40156 8.00098 6.40156C8.88464 6.40156 9.60098 7.11791 9.60098 8.00156C9.60098 8.14495 9.58212 8.28393 9.54675 8.41616L10.7579 9.62726C11.0394 9.15082 11.201 8.59506 11.201 8.00156C11.201 6.23425 9.76829 4.80156 8.00098 4.80156C7.40748 4.80156 6.85172 4.96313 6.37528 5.24469Z" fill="#8E8E8E"/>
<path d="M9.96405 13.3589L7.8005 11.1954C6.19288 11.096 4.90654 9.80966 4.80716 8.20204L1.86872 5.2636C1.20129 6.05935 0.685876 6.98691 0.367188 8.00159C1.38661 11.2473 4.41883 13.6016 8.00094 13.6016C8.67826 13.6016 9.33593 13.5174 9.96405 13.3589Z" fill="#8E8E8E"/>
</svg>
