<svg width="16" height="16" viewBox="0 0 16 16" fill="none" xmlns="http://www.w3.org/2000/svg">
<path fill-rule="evenodd" clip-rule="evenodd" d="M14.3996 8.00156C14.3996 11.5362 11.5342 14.4016 7.99961 14.4016C4.46499 14.4016 1.59961 11.5362 1.59961 8.00156C1.59961 4.46694 4.46499 1.60156 7.99961 1.60156C11.5342 1.60156 14.3996 4.46694 14.3996 8.00156ZM9.59961 5.60156C9.59961 6.48522 8.88326 7.20156 7.99961 7.20156C7.11595 7.20156 6.39961 6.48522 6.39961 5.60156C6.39961 4.71791 7.11595 4.00156 7.99961 4.00156C8.88326 4.00156 9.59961 4.71791 9.59961 5.60156ZM7.99955 8.80156C6.38552 8.80156 4.99476 9.75752 4.3626 11.1341C5.24283 12.1552 6.54573 12.8016 7.9996 12.8016C9.45343 12.8016 10.7563 12.1552 11.6365 11.1342C11.0044 9.75755 9.61361 8.80156 7.99955 8.80156Z" fill="#090909"/>
</svg>
