<svg width="20" height="20" viewBox="0 0 20 20" fill="none" xmlns="http://www.w3.org/2000/svg">
<path d="M3.8125 8.125H16.1875C16.374 8.1246 16.558 8.08248 16.7261 8.00173C16.8942 7.92098 17.0421 7.80364 17.1589 7.65832C17.2758 7.513 17.3586 7.34337 17.4014 7.16187C17.4442 6.98037 17.4459 6.79159 17.4062 6.60938C16.8359 3.86719 13.7188 1.875 10 1.875C6.28125 1.875 3.16406 3.86719 2.59375 6.60938C2.55412 6.79159 2.55577 6.98037 2.59856 7.16187C2.64136 7.34337 2.72422 7.513 2.84108 7.65832C2.95793 7.80364 3.10582 7.92098 3.27391 8.00173C3.442 8.08248 3.62602 8.1246 3.8125 8.125ZM10 3.125C13.0781 3.125 15.7344 4.73438 16.1875 6.86719H3.8125C4.26562 4.73438 6.92188 3.125 10 3.125ZM17.5781 11.9219L14.6875 13.0781L11.7969 11.9219C11.7226 11.8909 11.643 11.875 11.5625 11.875C11.482 11.875 11.4024 11.8909 11.3281 11.9219L8.4375 13.0781L5.54688 11.9219C5.47261 11.8909 5.39295 11.875 5.3125 11.875C5.23205 11.875 5.15239 11.8909 5.07812 11.9219L1.95312 13.1719C1.81947 13.2268 1.70896 13.3263 1.64041 13.4535C1.57185 13.5807 1.54949 13.7277 1.57712 13.8695C1.60475 14.0113 1.68066 14.1392 1.79195 14.2314C1.90323 14.3235 2.04301 14.3743 2.1875 14.375C2.26791 14.3746 2.34749 14.3587 2.42188 14.3281L3.125 14.0469V14.375C3.125 15.2038 3.45424 15.9987 4.04029 16.5847C4.62634 17.1708 5.4212 17.5 6.25 17.5H13.75C14.5788 17.5 15.3737 17.1708 15.9597 16.5847C16.5458 15.9987 16.875 15.2038 16.875 14.375V13.5469L18.0469 13.0781C18.1904 13.0094 18.3023 12.8885 18.3598 12.7402C18.4173 12.5918 18.416 12.427 18.3562 12.2796C18.2965 12.1321 18.1827 12.013 18.0381 11.9465C17.8935 11.88 17.729 11.8712 17.5781 11.9219ZM15.625 14.375C15.6229 14.8716 15.4247 15.3474 15.0736 15.6986C14.7224 16.0497 14.2466 16.2479 13.75 16.25H6.25C5.75335 16.2479 5.27763 16.0497 4.92645 15.6986C4.57526 15.3474 4.37706 14.8716 4.375 14.375V13.5469L5.3125 13.1719L8.20312 14.3281C8.27739 14.3591 8.35705 14.375 8.4375 14.375C8.51795 14.375 8.59761 14.3591 8.67188 14.3281L11.5625 13.1719L14.4531 14.3281C14.5274 14.3591 14.607 14.375 14.6875 14.375C14.768 14.375 14.8476 14.3591 14.9219 14.3281L15.625 14.0469V14.375ZM18.75 10C18.75 10.1658 18.6842 10.3247 18.5669 10.4419C18.4497 10.5592 18.2908 10.625 18.125 10.625H1.875C1.70924 10.625 1.55027 10.5592 1.43306 10.4419C1.31585 10.3247 1.25 10.1658 1.25 10C1.25 9.83424 1.31585 9.67527 1.43306 9.55806C1.55027 9.44085 1.70924 9.375 1.875 9.375H18.125C18.2908 9.375 18.4497 9.44085 18.5669 9.55806C18.6842 9.67527 18.75 9.83424 18.75 10Z" fill="#393939"/>
</svg>
