<svg width="16" height="16" viewBox="0 0 16 16" fill="none" xmlns="http://www.w3.org/2000/svg">
<path fill-rule="evenodd" clip-rule="evenodd" d="M1.59961 7.60078C1.59961 9.14718 2.85321 10.4008 4.39961 10.4008H7.19961V12.4694L6.16529 11.4351C5.85288 11.1227 5.34634 11.1227 5.03392 11.4351C4.7215 11.7475 4.7215 12.254 5.03392 12.5665L7.43392 14.9665C7.74634 15.2789 8.25288 15.2789 8.5653 14.9665L10.9653 12.5665C11.2777 12.254 11.2777 11.7475 10.9653 11.4351C10.6529 11.1227 10.1463 11.1227 9.83392 11.4351L8.79961 12.4694V10.4008H10.7996C12.7878 10.4008 14.3996 8.78901 14.3996 6.80078C14.3996 4.81256 12.7878 3.20078 10.7996 3.20078C10.6326 3.20078 10.4682 3.21216 10.3072 3.23418C9.96371 1.83708 8.70268 0.800781 7.19961 0.800781C5.4323 0.800781 3.99961 2.23347 3.99961 4.00078C3.99961 4.28256 4.03603 4.55584 4.10442 4.81616C2.69678 4.96364 1.59961 6.15408 1.59961 7.60078ZM8.79961 10.4008H7.19961V6.40078C7.19961 5.95895 7.55778 5.60078 7.99961 5.60078C8.44144 5.60078 8.79961 5.95895 8.79961 6.40078V10.4008Z" fill="#090909"/>
</svg>
